<svg xmlns="http://www.w3.org/2000/svg" width="1024" height="1024" viewBox="0 0 1024 1024" role="img" aria-label="Equity for Humanity — Asymmetric Arms — Separated Strokes">
  <defs>
    <radialGradient id="bg" cx="32%" cy="24%" r="72%">
      <stop offset="0%" stop-color="#fff8df"/>
      <stop offset="55%" stop-color="#f3f8f1"/>
      <stop offset="100%" stop-color="#dfeedd"/>
    </radialGradient>
    <linearGradient id="canopy" x1="0" y1="0" x2="1" y2="1">
      <stop offset="0%" stop-color="#a7bf83"/>
      <stop offset="58%" stop-color="#2f6f46"/>
      <stop offset="100%" stop-color="#173322"/>
    </linearGradient>
    <linearGradient id="gold" x1="0" y1="0" x2="1" y2="1">
      <stop offset="0%" stop-color="#f3dc95"/>
      <stop offset="100%" stop-color="#c99a3d"/>
    </linearGradient>
    <filter id="shadow" x="-20%" y="-20%" width="140%" height="140%">
      <feDropShadow dx="0" dy="26" stdDeviation="30" flood-color="#173322" flood-opacity="0.16"/>
    </filter>
  </defs>
  <rect width="1024" height="1024" rx="220" fill="url(#bg)"/>
  <circle cx="512" cy="504" r="360" fill="#ffffff" opacity="0.78" filter="url(#shadow)"/>
  <circle cx="512" cy="504" r="330" fill="#f3f8f1" opacity="0.82"/>  <path d="M512 676V482" stroke="#2f6f46" stroke-width="42" stroke-linecap="round"/>
  <path d="M512 532c-80-86-180-123-300-111 26-112 117-186 246-200 32-69 123-97 190-49 98 5 177 67 207 160 77 29 120 94 115 172-138-38-262-28-374 30-33 17-61 35-84 55z" fill="url(#canopy)" filter="url(#shadow)"/>
  <circle cx="352" cy="384" r="27" fill="url(#gold)"/>
  <circle cx="512" cy="318" r="30" fill="url(#gold)"/>
  <circle cx="678" cy="400" r="27" fill="url(#gold)"/>
  <circle cx="590" cy="456" r="22" fill="url(#gold)" opacity="0.94"/>  <g fill="#fffdf7" stroke="#173322" stroke-width="12" stroke-linejoin="round">
    <circle cx="430" cy="644" r="32"/>
    <path d="M374 762c7-72 32-108 56-108s49 36 56 108z"/>
    <circle cx="512" cy="672" r="25"/>
    <path d="M469 770c6-55 24-83 43-83s37 28 43 83z"/>
    <circle cx="596" cy="644" r="32"/>
    <path d="M540 762c7-72 32-108 56-108s49 36 56 108z"/>
  </g>  <path d="M464 676c17 30 31 49 54 58" fill="none" stroke="#fffdf7" stroke-width="30" stroke-linecap="round"/>
  <path d="M562 686c-31 21-43 33-53 48" fill="none" stroke="#fffdf7" stroke-width="30" stroke-linecap="round"/>
  <path d="M464 676c17 30 31 49 54 58" fill="none" stroke="#2f6f46" stroke-width="15" stroke-linecap="round"/>
  <path d="M562 686c-31 21-43 33-53 48" fill="none" stroke="#2f6f46" stroke-width="15" stroke-linecap="round"/>  <path d="M318 782c116 52 244 64 388 34" fill="none" stroke="url(#gold)" stroke-width="28" stroke-linecap="round"/>
  <path d="M306 836c132 44 280 50 436 18" fill="none" stroke="#89a86f" stroke-width="20" stroke-linecap="round" opacity="0.88"/>
</svg>